<svg width="189" height="157" viewBox="0 0 189 157" fill="none" xmlns="http://www.w3.org/2000/svg">
<path d="M116.595 40.7065L127.567 62.6664L100.06 76.5902L116.426 103.728L85.5873 120.988L81.3385 125.56L78.1672 118.225L61.6266 89.5921L92.6026 74.6417L75.679 46.3727L94.5675 36.4771L81.0087 47.6184L94.6162 68.5777L103.644 42.2062L101.136 34.7238L104.491 39.3666L108.438 31.5419L107.678 39.9737L112.323 39.3645L108.135 42.5823L98.9152 71.4395L122.461 59.9755L116.595 40.7065Z" fill="#133753"/>
<path d="M91.2768 81.3912L67.6779 91.8766C67.6779 91.8766 80.7461 115.559 81.0066 115.843C81.2648 116.128 91.2768 81.3912 91.2768 81.3912Z" fill="black"/>
<path d="M95.6348 81.522L85.0441 117.049L109.342 103.06L95.6348 81.522Z" fill="black"/>
</svg>
