<svg width="119" height="23" viewBox="0 0 119 23" fill="none" xmlns="http://www.w3.org/2000/svg">
<path d="M11.5 0C9.9898 0 8.49438 0.304841 7.09914 0.897119C5.7039 1.4894 4.43615 2.35751 3.36827 3.4519C1.2116 5.66211 0 8.6598 0 11.7855C0 16.9947 3.3005 21.4143 7.866 22.9817C8.441 23.076 8.625 22.7107 8.625 22.3925V20.4007C5.4395 21.1078 4.761 18.8215 4.761 18.8215C4.232 17.4543 3.4845 17.089 3.4845 17.089C2.438 16.3583 3.565 16.3819 3.565 16.3819C4.715 16.4644 5.3245 17.5958 5.3245 17.5958C6.325 19.3872 8.0155 18.8568 8.671 18.574C8.7745 17.8079 9.0735 17.2893 9.3955 16.9947C6.8425 16.7001 4.163 15.6865 4.163 11.1962C4.163 9.88804 4.6 8.83913 5.3475 8.00236C5.2325 7.70772 4.83 6.48203 5.4625 4.89099C5.4625 4.89099 6.4285 4.57278 8.625 6.09311C9.5335 5.83383 10.5225 5.70419 11.5 5.70419C12.4775 5.70419 13.4665 5.83383 14.375 6.09311C16.5715 4.57278 17.5375 4.89099 17.5375 4.89099C18.17 6.48203 17.7675 7.70772 17.6525 8.00236C18.4 8.83913 18.837 9.88804 18.837 11.1962C18.837 15.6983 16.146 16.6883 13.5815 16.9829C13.9955 17.3483 14.375 18.0672 14.375 19.1632V22.3925C14.375 22.7107 14.559 23.0878 15.1455 22.9817C19.711 21.4025 23 16.9947 23 11.7855C23 10.2378 22.7025 8.70527 22.1246 7.27539C21.5467 5.84551 20.6996 4.54628 19.6317 3.4519C18.5639 2.35751 17.2961 1.4894 15.9009 0.897119C14.5056 0.304841 13.0102 0 11.5 0Z" fill="white"/>
<path d="M54 11.5288C54 5.16491 48.848 0 42.5 0C36.152 0 31 5.16491 31 11.5288C31 17.1088 34.956 21.7549 40.2 22.8271V14.9875H37.9V11.5288H40.2V8.64662C40.2 6.42155 42.0055 4.61153 44.225 4.61153H47.1V8.07018H44.8C44.1675 8.07018 43.65 8.58897 43.65 9.22306V11.5288H47.1V14.9875H43.65V23C49.4575 22.4236 54 17.5123 54 11.5288Z" fill="white"/>
<path d="M84.5556 0C85.2039 0 85.8256 0.257539 86.284 0.715961C86.7425 1.17438 87 1.79614 87 2.44444V19.5556C87 20.2039 86.7425 20.8256 86.284 21.284C85.8256 21.7425 85.2039 22 84.5556 22H67.4444C66.7961 22 66.1744 21.7425 65.716 21.284C65.2575 20.8256 65 20.2039 65 19.5556V2.44444C65 1.79614 65.2575 1.17438 65.716 0.715961C66.1744 0.257539 66.7961 0 67.4444 0H84.5556ZM83.9444 18.9444V12.4667C83.9444 11.4099 83.5247 10.3965 82.7774 9.64924C82.0302 8.90201 81.0167 8.48222 79.96 8.48222C78.9211 8.48222 77.7111 9.11778 77.1244 10.0711V8.71444H73.7144V18.9444H77.1244V12.9189C77.1244 11.9778 77.8822 11.2078 78.8233 11.2078C79.2771 11.2078 79.7124 11.3881 80.0333 11.709C80.3542 12.0298 80.5344 12.4651 80.5344 12.9189V18.9444H83.9444ZM69.7422 6.79556C70.2868 6.79556 70.8091 6.57922 71.1941 6.19415C71.5792 5.80907 71.7956 5.2868 71.7956 4.74222C71.7956 3.60556 70.8789 2.67667 69.7422 2.67667C69.1944 2.67667 68.669 2.89429 68.2817 3.28165C67.8943 3.66902 67.6767 4.1944 67.6767 4.74222C67.6767 5.87889 68.6056 6.79556 69.7422 6.79556ZM71.4411 18.9444V8.71444H68.0556V18.9444H71.4411Z" fill="white"/>
<path d="M108.682 0C109.976 0.00344992 110.633 0.0103498 111.199 0.0264494L111.423 0.0344991C111.68 0.0436989 111.934 0.0551986 112.241 0.0689983C113.465 0.126497 114.3 0.319692 115.032 0.603736C115.791 0.895828 116.431 1.29142 117.07 1.92965C117.655 2.50433 118.107 3.19977 118.396 3.9674C118.68 4.69994 118.873 5.53482 118.93 6.75954C118.944 7.06543 118.956 7.31957 118.965 7.57832L118.972 7.80141C118.989 8.3672 118.996 9.02383 118.998 10.3176L118.999 11.1754V12.6819C119.002 13.5207 118.993 14.3595 118.973 15.198L118.966 15.4211C118.957 15.6799 118.945 15.934 118.932 16.2399C118.874 17.4646 118.679 18.2984 118.396 19.032C118.107 19.7997 117.655 20.4951 117.07 21.0698C116.495 21.6548 115.8 22.1073 115.032 22.3957C114.3 22.6798 113.465 22.8729 112.241 22.9304L111.423 22.9649L111.199 22.9718C110.633 22.9879 109.976 22.996 108.682 22.9983L107.824 22.9994H106.319C105.48 23.0024 104.641 22.9936 103.802 22.973L103.579 22.9661C103.306 22.9558 103.033 22.9439 102.76 22.9304C101.536 22.8729 100.702 22.6798 99.968 22.3957C99.2007 22.1071 98.5057 21.6546 97.9314 21.0698C97.346 20.4952 96.8931 19.7998 96.6044 19.032C96.3203 18.2995 96.1271 17.4646 96.0697 16.2399L96.0352 15.4211L96.0294 15.198C96.0082 14.3595 95.9986 13.5207 96.0007 12.6819V10.3176C95.9975 9.47876 96.0059 8.63997 96.026 7.80141L96.034 7.57832C96.0432 7.31957 96.0547 7.06543 96.0685 6.75954C96.126 5.53482 96.3192 4.70109 96.6032 3.9674C96.8927 3.19945 97.3463 2.50399 97.9326 1.92965C98.5066 1.34495 99.2012 0.892463 99.968 0.603736C100.702 0.319692 101.535 0.126497 102.76 0.0689983C103.066 0.0551986 103.321 0.0436989 103.579 0.0344991L103.802 0.0275993C104.64 0.00716744 105.479 -0.00164986 106.318 0.00114989L108.682 0ZM107.5 5.74986C105.975 5.74986 104.513 6.35565 103.434 7.43396C102.356 8.51226 101.75 9.97476 101.75 11.4997C101.75 13.0247 102.356 14.4872 103.434 15.5655C104.513 16.6438 105.975 17.2496 107.5 17.2496C109.025 17.2496 110.487 16.6438 111.566 15.5655C112.644 14.4872 113.25 13.0247 113.25 11.4997C113.25 9.97476 112.644 8.51226 111.566 7.43396C110.487 6.35565 109.025 5.74986 107.5 5.74986ZM107.5 8.04981C107.953 8.04973 108.402 8.13889 108.82 8.31219C109.239 8.4855 109.619 8.73956 109.94 9.05986C110.26 9.38016 110.514 9.76043 110.688 10.179C110.861 10.5975 110.95 11.0461 110.95 11.4991C110.951 11.9522 110.861 12.4008 110.688 12.8194C110.515 13.238 110.261 13.6184 109.94 13.9388C109.62 14.2592 109.24 14.5134 108.821 14.6868C108.403 14.8603 107.954 14.9496 107.501 14.9496C106.586 14.9496 105.709 14.5862 105.062 13.9392C104.415 13.2922 104.051 12.4147 104.051 11.4997C104.051 10.5847 104.415 9.70725 105.062 9.06026C105.709 8.41328 106.586 8.04981 107.501 8.04981M113.538 4.0249C113.157 4.0249 112.792 4.17635 112.522 4.44593C112.252 4.7155 112.101 5.08113 112.101 5.46237C112.101 5.84361 112.252 6.20923 112.522 6.47881C112.792 6.74839 113.157 6.89983 113.538 6.89983C113.92 6.89983 114.285 6.74839 114.555 6.47881C114.824 6.20923 114.976 5.84361 114.976 5.46237C114.976 5.08113 114.824 4.7155 114.555 4.44593C114.285 4.17635 113.92 4.0249 113.538 4.0249Z" fill="white"/>
</svg>
