<?xml version="1.0" encoding="utf-8"?>
<!-- Generator: Adobe Illustrator 27.9.6, SVG Export Plug-In . SVG Version: 9.03 Build 54986)  -->
<svg version="1.1" id="Calque_1" xmlns="http://www.w3.org/2000/svg" xmlns:xlink="http://www.w3.org/1999/xlink" x="0px" y="0px"
	 viewBox="0 0 203 179" style="enable-background:new 0 0 203 179;" xml:space="preserve">
<style type="text/css">
	.st0{fill:none;stroke:#133753;stroke-width:5;stroke-miterlimit:10;}
	.st1{fill:none;stroke:#133753;stroke-width:5;stroke-linecap:round;stroke-miterlimit:10;}
</style>
<path class="st0" d="M33.7,77.7c0,0-4.2,20.5,20.1,29.1c0,0,9,27.6,30.2,12c0,0,19.5,21,34.4,0.1c0,0,22,5.5,28.5-17.6
	s-16-27.8-16-27.8s-3.8-15.8-17.6-18.7C99.5,52,92.8,63,92.8,63s-18.2-10.9-24,13.6c0,0-9.6-5.2-17.4,5.4
	C43.6,92.7,33.7,77.7,33.7,77.7z"/>
<path class="st1" d="M92.8,63c0,0-6.4,12.5,3.8,17.5c10.2,5,15.2-7.4,15.2-7.4"/>
<path class="st1" d="M53.7,106.8c0,0,2.8-10,9.5-13c6.7-3,17.8,3.2,15.3,11.5"/>
<path class="st1" d="M118.3,118.9c0,0-9.4-4.2-8.8-12.3c0.6-8,8.8-10.7,12.3-8.8"/>
</svg>
