<?xml version="1.0" encoding="utf-8"?>
<!-- Generator: Adobe Illustrator 27.9.6, SVG Export Plug-In . SVG Version: 9.03 Build 54986)  -->
<svg version="1.1" baseProfile="tiny" id="Calque_1"
	 xmlns="http://www.w3.org/2000/svg" xmlns:xlink="http://www.w3.org/1999/xlink" x="0px" y="0px" viewBox="0 0 347.23 151.15"
	 overflow="visible" xml:space="preserve">
<path fill="#8E74B2" d="M34.56,75.47L94.8,41.93c0,0-1.02-1.58-1.97-2.66c-0.88-1.01,0.04-2.57,1.35-2.26c1.07,0.25,2.55,1,4.6,2.63
	c0,0,25.9-19.84,37.21-19.29s19.06,0.01,30.07,19.8l-62.22,35.86l-85.25,49.13l-8.5-14.75C10.09,110.39,5.69,96.62,34.56,75.47z"/>
<path fill="#010202" d="M108.72,40.83L90.96,57.75c0,0,12.28,14.82,12.88,18.26l26.69-15.38C130.54,60.62,116.42,39.54,108.72,40.83
	z"/>
<polygon fill="#010202" points="96.05,47.15 87.94,56.94 72.31,65.94 70.41,60.95 "/>
<polygon fill="#010202" points="67.76,62.48 69.65,67.47 53.87,76.57 39.87,79.53 "/>
<path fill="#010202" d="M43.35,85.58c0,0,6.64,16.3,9.02,20.09l-23.45,13.51c0,0-9.52-16.86-7.32-22.25L43.35,85.58z"/>
<path fill="#FFE601" d="M139.77,21.76c-0.99,0.23,6.8,5.32,11.62,3.12C151.39,24.88,147.22,20.02,139.77,21.76z"/>
<path fill="#8E74B2" d="M69.58,136.23l59.22-35.31c0,0,0.86,1.68,1.32,3.04c0.43,1.27,2.24,1.25,2.63-0.03
	c0.32-1.05,0.42-2.71,0.03-5.3c0,0,31.61-15.67,33.29-26.88c1.55-10.34,2.53-12.85,0-31.6l-62.22,35.86l-85.25,49.13l8.5,14.75
	C27.09,139.89,36.8,150.6,69.58,136.23z"/>
<path fill="#010202" d="M136.72,89.42l-23.54,6.88c0,0-6.67-18.05-9.34-20.3l26.69-15.38C130.54,60.62,141.7,83.41,136.72,89.42z"/>
<polygon fill="#010202" points="124.91,97.21 112.37,99.33 96.74,108.34 100.11,112.49 "/>
<polygon fill="#010202" points="97.46,114.02 94.09,109.87 78.31,118.96 68.72,129.6 "/>
<path fill="#010202" d="M65.24,123.55c0,0-10.77-13.92-12.86-17.88l-23.45,13.51c0,0,9.81,16.69,15.58,17.49L65.24,123.55z"/>
<path fill="#FFE601" d="M171.92,60.5"/>
<path fill="#010202" d="M139.77,21.76"/>
<path fill="#B7B7B7" d="M279.7,140.33l-63.98-25.68c0,0-0.59,1.79-0.83,3.21c-0.23,1.32-2.02,1.59-2.61,0.38
	c-0.48-0.99-0.84-2.61-0.85-5.23c0,0-27.62-12.47-34.32-21.61c-3.94-5.38-8.82-7.88-10.44-13.31c-1.13-3.8-0.68-9.03,2.79-17.67
	l67.04,25.76l91.85,35.29l-6.1,15.89C322.24,137.34,314.31,149.43,279.7,140.33z"/>
<path fill="#010202" d="M206.1,104.52l24.32,3.14c0,0,3.79-18.87,6.07-21.5l-28.76-11.05C207.73,75.11,200.24,99.36,206.1,104.52z"
	/>
<polygon fill="#010202" points="218.98,110.39 231.69,110.53 248.53,117 245.84,121.62 "/>
<polygon fill="#010202" points="248.7,122.72 251.39,118.1 268.39,124.63 279.52,133.65 "/>
<path fill="#010202" d="M282.02,127.13c0,0,8.48-15.43,9.92-19.66l25.26,9.71c0,0-7.1,18.01-12.67,19.7L282.02,127.13z"/>
<path fill="#FFE601" d="M172.84,85.96c-0.44,0.92-0.15-8.63-4.89-11C174.69,71.01,178.32,74.51,172.84,85.96z"/>
<path fill="#B7B7B7" d="M304.85,74.87l-64.72-23.77c0,0,0.76-1.72,1.53-2.94c0.72-1.14-0.44-2.53-1.68-2.03
	c-1.02,0.41-2.37,1.38-4.14,3.32c0,0-28.66-15.57-39.76-13.27c-11.1,2.3-18.83,2.98-26.63,24.23l67.04,25.76l91.85,35.29l6.1-15.89
	C334.45,105.57,336.65,91.28,304.85,74.87z"/>
<path fill="#010202" d="M226.21,52.18l20.17,13.95c0,0-9.82,16.55-9.89,20.04l-28.76-11.05C207.73,75.11,218.4,52.09,226.21,52.18z"
	/>
<polygon fill="#010202" points="239.71,56.45 249.24,64.85 266.08,71.32 267.18,66.09 "/>
<polygon fill="#010202" points="270.04,67.19 268.94,72.42 285.94,78.96 300.24,79.71 "/>
<path fill="#010202" d="M297.74,86.22c0,0-4.03,17.14-5.79,21.25l25.26,9.71c0,0,6.78-18.13,3.78-23.12L297.74,86.22z"/>
<path fill="#FFE601" d="M192.58,38.16c1.02,0.07-5.89,6.31-11,4.89C181.58,43.05,184.95,37.6,192.58,38.16z"/>
<path fill="#010202" d="M171.65,87.02"/>
<circle fill="#010202" cx="168.99" cy="59.36" r="2.66"/>
<circle fill="#010202" cx="169.45" cy="54.72" r="4.43"/>
<circle fill="#010202" cx="171.92" cy="52.18" r="5.13"/>
<circle fill="#010202" cx="175.51" cy="40.15" r="8.88"/>
<circle fill="#010202" cx="164.17" cy="49.03" r="6.6"/>
<circle fill="#010202" cx="163.47" cy="40.78" r="10.2"/>
<circle fill="#010202" cx="173.31" cy="38.12" r="8.68"/>
<circle fill="#010202" cx="167.62" cy="25.43" r="10.77"/>
</svg>
