<?xml version="1.0" encoding="utf-8"?>
<!-- Generator: Adobe Illustrator 27.9.6, SVG Export Plug-In . SVG Version: 9.03 Build 54986)  -->
<svg version="1.1" baseProfile="tiny" id="Calque_1"
	 xmlns="http://www.w3.org/2000/svg" xmlns:xlink="http://www.w3.org/1999/xlink" x="0px" y="0px" viewBox="0 0 230.3 64.68"
	 overflow="visible" xml:space="preserve">
<polygon fill="#E0DE2A" stroke="#000000" stroke-width="2" stroke-miterlimit="10" points="107.69,91.7 109.94,103.1 118.45,103.1 
	118.45,107.66 123.77,99.67 111.98,95.88 115.72,84.85 "/>
<polyline fill="#E0DE2A" stroke="#000000" stroke-width="2" stroke-miterlimit="10" points="67.05,80.7 70.17,89.43 75.07,89.43 
	78.53,92.85 75.07,84.87 71.31,84.87 72.79,80.7 "/>
<polyline fill="#E0DE2A" stroke="#000000" stroke-width="3" stroke-miterlimit="10" points="198.84,75.7 197.51,80.01 194.47,75.7 
	196.65,72.09 "/>
<path fill="#939597" stroke="#000000" stroke-width="3" stroke-miterlimit="10" d="M199.62,1.31c0,0,27.7,17.47,3.64,30.87
	c0,0,1.6,24.29-34.05,11.82c0,0-20.2,22.03-38.14-1.12c0,0-19.74,16.58-30.65-7.48c0,0-29.29-3.17-10.23-26.78
	c0,0-4.55-23.61,24.97-14.77c0,0,11.11-35.87,39.5-3.19c0,0,2.94-20.43,25.87-16.81S199.62,1.31,199.62,1.31z"/>
<path fill="#939597" stroke="#000000" stroke-width="3" stroke-miterlimit="10" d="M188.3-7.45c0,0,20.66,7.94,8.41,20.88"/>
<path fill="none" stroke="#000000" stroke-width="3" stroke-miterlimit="10" d="M204.41,23.06c0,0,0.17,24.06-27.98,10.91"/>
<path fill="none" stroke="#000000" stroke-width="3" stroke-miterlimit="10" d="M141.14,33.03c0,0-14.41,22.03-27.58,0.01"/>
<path fill="#939597" stroke="#000000" stroke-width="3" stroke-miterlimit="10" d="M161.14,71.19c0,0,27.69-17.61,3.62-31.09
	c0,0,1.58-24.46-34.06-11.87c0,0-20.21-22.17-38.14,1.16c0,0-19.76-16.68-30.64,7.56c0,0-29.28,3.21-10.21,26.98
	c0,0-4.53,23.78,24.98,14.85c0,0,11.14,36.12,39.5,3.19c0,0,2.96,20.57,25.89,16.91S161.14,71.19,161.14,71.19z"/>
<path fill="#939597" stroke="#000000" stroke-width="3" stroke-miterlimit="10" d="M149.82,80.03c0,0,20.66-8.01,8.39-21.04"/>
<path fill="none" stroke="#000000" stroke-width="3" stroke-miterlimit="10" d="M165.91,49.28c0,0,0.15-24.23-27.99-10.96"/>
<path fill="none" stroke="#000000" stroke-width="3" stroke-miterlimit="10" d="M102.63,39.29c0,0-14.42-22.17-27.58,0.01"/>
<path fill="#939597" stroke="#000000" stroke-width="3" stroke-miterlimit="10" d="M86.72,21.91c0,0,19.95-12.1,2.61-21.36
	c0,0,1.14-16.81-24.54-8.16c0,0-14.56-15.23-27.48,0.8c0,0-14.23-11.46-22.08,5.19c0,0-21.1,2.21-7.35,18.54c0,0-3.27,16.34,18,10.2
	c0,0,8.02,24.81,28.46,2.19c0,0,2.13,14.14,18.65,11.62C89.51,38.4,86.72,21.91,86.72,21.91z"/>
<path fill="none" stroke="#000000" stroke-width="3" stroke-miterlimit="10" d="M44.57-0.01c0,0-10.39-15.23-19.87,0.01"/>
<path fill="#939597" stroke="#000000" stroke-width="3" stroke-miterlimit="10" d="M217.95,65.89c0,0,12.7-7.34,1.66-12.95
	c0,0,0.72-10.19-15.62-4.95c0,0-9.27-9.23-17.49,0.48c0,0-9.06-6.95-14.05,3.15c0,0-13.43,1.34-4.68,11.24c0,0-2.08,9.9,11.45,6.19
	c0,0,5.11,15.04,18.12,1.33c0,0,1.36,8.57,11.87,7.04S217.95,65.89,217.95,65.89z"/>
</svg>
